<svg xmlns="http://www.w3.org/2000/svg" xmlns:xlink="http://www.w3.org/1999/xlink" width="60px" height="60px" viewBox="0 0 60 60" version="1.1">
<g>
<path style=" stroke:none;fill-rule:nonzero;fill:#a3bbc8;fill-opacity:1;" d="M 17.5 6.5625 L 17.5 15.9375 C 17.5 17.492188 16.242188 18.75 14.6875 18.75 L 2.8125 18.75 C 1.257812 18.75 0 17.492188 0 15.9375 L 0 6.5625 C 0 5.007812 1.257812 3.75 2.8125 3.75 L 14.6875 3.75 C 16.242188 3.75 17.5 5.007812 17.5 6.5625 Z M 38.75 34.6875 L 38.75 25.3125 C 38.75 23.757812 37.492188 22.5 35.9375 22.5 L 24.0625 22.5 C 22.507812 22.5 21.25 23.757812 21.25 25.3125 L 21.25 34.6875 C 21.25 36.242188 22.507812 37.5 24.0625 37.5 L 35.9375 37.5 C 37.492188 37.5 38.75 36.242188 38.75 34.6875 Z M 42.5 6.5625 L 42.5 15.9375 C 42.5 17.492188 43.757812 18.75 45.3125 18.75 L 57.1875 18.75 C 58.742188 18.75 60 17.492188 60 15.9375 L 60 6.5625 C 60 5.007812 58.742188 3.75 57.1875 3.75 L 45.3125 3.75 C 43.757812 3.75 42.5 5.007812 42.5 6.5625 Z M 38.75 15.9375 L 38.75 6.5625 C 38.75 5.007812 37.492188 3.75 35.9375 3.75 L 24.0625 3.75 C 22.507812 3.75 21.25 5.007812 21.25 6.5625 L 21.25 15.9375 C 21.25 17.492188 22.507812 18.75 24.0625 18.75 L 35.9375 18.75 C 37.492188 18.75 38.75 17.492188 38.75 15.9375 Z M 14.6875 22.5 L 2.8125 22.5 C 1.257812 22.5 0 23.757812 0 25.3125 L 0 34.6875 C 0 36.242188 1.257812 37.5 2.8125 37.5 L 14.6875 37.5 C 16.242188 37.5 17.5 36.242188 17.5 34.6875 L 17.5 25.3125 C 17.5 23.757812 16.242188 22.5 14.6875 22.5 Z M 0 44.0625 L 0 53.4375 C 0 54.992188 1.257812 56.25 2.8125 56.25 L 14.6875 56.25 C 16.242188 56.25 17.5 54.992188 17.5 53.4375 L 17.5 44.0625 C 17.5 42.507812 16.242188 41.25 14.6875 41.25 L 2.8125 41.25 C 1.257812 41.25 0 42.507812 0 44.0625 Z M 45.3125 37.5 L 57.1875 37.5 C 58.742188 37.5 60 36.242188 60 34.6875 L 60 25.3125 C 60 23.757812 58.742188 22.5 57.1875 22.5 L 45.3125 22.5 C 43.757812 22.5 42.5 23.757812 42.5 25.3125 L 42.5 34.6875 C 42.5 36.242188 43.757812 37.5 45.3125 37.5 Z M 45.3125 56.25 L 57.1875 56.25 C 58.742188 56.25 60 54.992188 60 53.4375 L 60 44.0625 C 60 42.507812 58.742188 41.25 57.1875 41.25 L 45.3125 41.25 C 43.757812 41.25 42.5 42.507812 42.5 44.0625 L 42.5 53.4375 C 42.5 54.992188 43.757812 56.25 45.3125 56.25 Z M 21.25 44.0625 L 21.25 53.4375 C 21.25 54.992188 22.507812 56.25 24.0625 56.25 L 35.9375 56.25 C 37.492188 56.25 38.75 54.992188 38.75 53.4375 L 38.75 44.0625 C 38.75 42.507812 37.492188 41.25 35.9375 41.25 L 24.0625 41.25 C 22.507812 41.25 21.25 42.507812 21.25 44.0625 Z M 21.25 44.0625 "/>
</g>
</svg>
