<svg xmlns="http://www.w3.org/2000/svg" width="19px" height="12px" viewBox="0 0 19 12" version="1.1">
<g id="surface1">
<path style=" stroke:none;fill-rule:evenodd;fill-opacity:1;" d="M 5.550781 12.300781 C 2.886719 12.152344 0.65625 10.164062 0.105469 7.457031 C -0.0078125 6.914062 -0.046875 6.355469 -0.0078125 5.804688 C 0.171875 3.105469 2 0.835938 4.527344 0.179688 C 4.84375 0.0859375 5.171875 0.03125 5.5 0.015625 C 5.691406 0.0078125 5.882812 0 6.070312 0 C 7.058594 0.00390625 8.027344 0.28125 8.878906 0.796875 C 9.25 1.03125 9.601562 1.296875 9.929688 1.59375 C 9.335938 2.203125 8.765625 2.792969 8.1875 3.386719 C 7.707031 2.917969 7.101562 2.613281 6.453125 2.511719 C 6.285156 2.488281 6.117188 2.476562 5.949219 2.476562 C 4.304688 2.5 2.890625 3.6875 2.527344 5.347656 C 2.4375 5.710938 2.410156 6.089844 2.445312 6.460938 C 2.558594 7.941406 3.515625 9.203125 4.875 9.667969 C 5.207031 9.773438 5.554688 9.828125 5.90625 9.832031 C 5.988281 9.832031 6.070312 9.824219 6.15625 9.824219 C 6.769531 9.792969 7.363281 9.59375 7.882812 9.25 C 8.503906 8.820312 8.929688 8.148438 9.0625 7.386719 L 5.882812 7.386719 C 5.882812 7.3125 5.898438 5.769531 5.898438 5.023438 L 5.90625 4.921875 L 11.492188 4.921875 C 11.84375 6.726562 11.460938 8.601562 10.433594 10.105469 C 9.707031 11.101562 8.671875 11.804688 7.5 12.09375 C 6.976562 12.238281 6.4375 12.308594 5.898438 12.308594 C 5.78125 12.308594 5.667969 12.308594 5.550781 12.300781 Z M 16.5625 8.828125 L 15 8.828125 L 15 8.769531 L 15.019531 6.6875 L 12.945312 6.6875 L 12.945312 6.617188 L 12.960938 5.058594 L 12.960938 4.996094 L 15.027344 4.996094 L 15.042969 2.914062 L 15.042969 2.855469 L 16.664062 2.855469 L 16.664062 2.914062 L 16.644531 4.996094 L 18.71875 4.996094 L 18.71875 5.058594 L 18.710938 6.617188 L 18.710938 6.6875 L 16.636719 6.6875 L 16.621094 8.769531 L 16.621094 8.828125 Z M 16.5625 8.828125 "/>
</g>
</svg>
