<?xml version="1.0" encoding="UTF-8"?>
<svg xmlns="http://www.w3.org/2000/svg" xmlns:xlink="http://www.w3.org/1999/xlink" width="19px" height="16px" viewBox="0 0 19 16" version="1.1">
<g id="surface1">
<path style=" stroke:none;fill-rule:evenodd;fill:rgb(14.117647%,24.705882%,30.196078%);fill-opacity:1;" d="M 18.992188 5.171875 C 18.921875 3.796875 18.351562 2.496094 17.394531 1.527344 C 16.445312 0.550781 15.160156 0 13.816406 0 C 11.824219 0 10.40625 1.582031 9.65625 2.4375 C 9.605469 2.488281 9.558594 2.542969 9.515625 2.585938 C 9.492188 2.5625 9.46875 2.535156 9.449219 2.507812 C 8.75 1.6875 7.304688 0 5.183594 0 C 3.839844 0 2.554688 0.550781 1.605469 1.527344 C 0.648438 2.496094 0.078125 3.796875 0.0078125 5.171875 C -0.0585938 6.550781 0.328125 7.910156 1.105469 9.03125 C 2.3125 10.597656 3.691406 12.011719 5.214844 13.253906 C 6.691406 14.507812 8.628906 16 9.507812 16 C 10.390625 16 12.332031 14.507812 13.792969 13.253906 C 15.3125 12.011719 16.691406 10.597656 17.894531 9.03125 C 18.671875 7.910156 19.058594 6.550781 18.992188 5.171875 Z M 16.9375 8.382812 C 15.8125 9.839844 14.53125 11.160156 13.109375 12.3125 C 11.039062 14.089844 9.800781 14.792969 9.507812 14.816406 C 9.214844 14.792969 7.980469 14.078125 5.890625 12.292969 C 4.46875 11.148438 3.183594 9.835938 2.0625 8.382812 C 1.421875 7.46875 1.101562 6.359375 1.148438 5.234375 C 1.257812 3.003906 3.011719 1.238281 5.183594 1.171875 C 6.789062 1.171875 7.953125 2.542969 8.585938 3.28125 C 8.773438 3.636719 9.113281 3.882812 9.5 3.957031 C 9.914062 3.871094 10.277344 3.609375 10.492188 3.234375 C 11.175781 2.460938 12.324219 1.171875 13.816406 1.171875 C 15.988281 1.238281 17.742188 3.003906 17.851562 5.234375 C 17.902344 6.359375 17.582031 7.472656 16.9375 8.382812 Z M 16.9375 8.382812 "/>
</g>
</svg>
