<?xml version="1.0" encoding="UTF-8"?>
<svg xmlns="http://www.w3.org/2000/svg" xmlns:xlink="http://www.w3.org/1999/xlink" width="19px" height="17px" viewBox="0 0 19 17" version="1.1">
<g id="surface1">
<path style=" stroke:none;fill-rule:evenodd;fill:rgb(14.117647%,24.705882%,30.196078%);fill-opacity:1;" d="M 18.992188 5.496094 C 18.921875 4.03125 18.351562 2.652344 17.394531 1.625 C 16.445312 0.585938 15.160156 0 13.816406 0 C 11.824219 0 10.40625 1.679688 9.65625 2.585938 C 9.605469 2.644531 9.558594 2.699219 9.515625 2.75 C 9.492188 2.722656 9.46875 2.695312 9.449219 2.664062 C 8.75 1.792969 7.304688 0 5.183594 0 C 3.839844 0 2.554688 0.585938 1.605469 1.625 C 0.648438 2.652344 0.078125 4.03125 0.0078125 5.496094 C -0.0585938 6.960938 0.328125 8.402344 1.105469 9.59375 C 2.3125 11.257812 3.691406 12.765625 5.214844 14.082031 C 6.691406 15.414062 8.628906 17 9.507812 17 C 10.390625 17 12.332031 15.414062 13.792969 14.082031 C 15.3125 12.765625 16.691406 11.257812 17.894531 9.59375 C 18.671875 8.402344 19.058594 6.960938 18.992188 5.496094 Z M 16.9375 8.90625 C 15.8125 10.457031 14.53125 11.855469 13.109375 13.082031 C 11.039062 14.96875 9.800781 15.714844 9.507812 15.742188 C 9.214844 15.714844 7.980469 14.960938 5.890625 13.0625 C 4.46875 11.847656 3.183594 10.453125 2.0625 8.90625 C 1.421875 7.9375 1.101562 6.757812 1.148438 5.5625 C 1.257812 3.195312 3.011719 1.3125 5.183594 1.246094 C 6.789062 1.246094 7.953125 2.699219 8.585938 3.484375 C 8.773438 3.863281 9.113281 4.125 9.5 4.203125 C 9.914062 4.113281 10.277344 3.835938 10.492188 3.4375 C 11.175781 2.617188 12.324219 1.246094 13.816406 1.246094 C 15.988281 1.3125 17.742188 3.195312 17.851562 5.5625 C 17.902344 6.757812 17.582031 7.9375 16.9375 8.90625 Z M 16.9375 8.90625 "/>
</g>
</svg>
