<svg xmlns="http://www.w3.org/2000/svg" width="15px" height="14px" viewBox="0 0 15 14" version="1.1">
<g id="surface1">
<path style=" stroke:none;fill-rule:evenodd;fill-opacity:1;" d="M 3.167969 13.949219 C 1.546875 13.640625 0.328125 12.394531 0.140625 10.863281 C -0.0625 9.667969 -0.078125 4.117188 0.292969 2.914062 C 0.664062 1.4375 1.984375 0.335938 3.601562 0.15625 C 4.863281 0.03125 6.132812 -0.0234375 7.402344 0 C 8.816406 0 10.242188 0.03125 11.101562 0.0820312 C 12.132812 0.101562 13.117188 0.476562 13.871094 1.136719 C 14.585938 1.773438 15.019531 2.636719 15.089844 3.558594 C 15.195312 4.667969 15.273438 9.933594 14.921875 11.167969 C 14.566406 12.683594 13.21875 13.820312 11.566406 14 C 10.179688 14.125 8.78125 14.175781 7.386719 14.15625 C 5.976562 14.195312 4.566406 14.128906 3.167969 13.949219 Z M 3.980469 1.382812 C 2.726562 1.457031 1.707031 2.351562 1.554688 3.515625 C 1.34375 5.898438 1.324219 8.289062 1.5 10.671875 C 1.609375 11.640625 2.355469 12.441406 3.371094 12.675781 C 4.722656 12.851562 6.089844 12.917969 7.457031 12.878906 C 9.042969 12.878906 10.605469 12.832031 11.195312 12.773438 C 12.457031 12.703125 13.480469 11.800781 13.625 10.632812 C 13.828125 8.316406 13.859375 5.992188 13.71875 3.671875 C 13.660156 2.5 12.695312 1.542969 11.445312 1.417969 C 10.183594 1.308594 8.917969 1.265625 7.648438 1.285156 C 6.140625 1.285156 4.640625 1.316406 3.980469 1.382812 Z M 3.695312 7.082031 C 3.714844 5.070312 5.46875 3.449219 7.625 3.449219 C 8.652344 3.449219 9.636719 3.835938 10.363281 4.515625 C 11.085938 5.199219 11.488281 6.121094 11.480469 7.082031 C 11.457031 9.09375 9.707031 10.710938 7.554688 10.714844 C 6.523438 10.714844 5.539062 10.332031 4.8125 9.648438 C 4.089844 8.964844 3.6875 8.042969 3.695312 7.082031 Z M 5.066406 7.058594 C 5.054688 7.679688 5.308594 8.28125 5.773438 8.726562 C 6.242188 9.171875 6.878906 9.425781 7.542969 9.429688 L 7.5625 9.429688 C 8.945312 9.429688 10.074219 8.398438 10.101562 7.105469 C 10.117188 6.484375 9.863281 5.882812 9.398438 5.4375 C 8.933594 4.992188 8.296875 4.738281 7.632812 4.734375 L 7.605469 4.734375 C 6.222656 4.734375 5.09375 5.765625 5.066406 7.058594 Z M 10.757812 3.3125 C 10.753906 3.085938 10.851562 2.871094 11.023438 2.710938 C 11.191406 2.550781 11.421875 2.460938 11.664062 2.460938 L 11.671875 2.460938 C 11.914062 2.460938 12.148438 2.550781 12.316406 2.714844 C 12.488281 2.875 12.578125 3.09375 12.574219 3.320312 C 12.566406 3.785156 12.15625 4.160156 11.65625 4.160156 C 11.414062 4.160156 11.183594 4.070312 11.015625 3.910156 C 10.84375 3.75 10.753906 3.535156 10.757812 3.3125 Z M 10.757812 3.3125 "/>
</g>
</svg>
