<svg xmlns="http://www.w3.org/2000/svg" width="15px" height="13px" viewBox="0 0 15 13" version="1.1">
<g>
<path style=" stroke:none;fill-rule:nonzero;fill-opacity:1;" d="M 13.457031 4.292969 C 13.46875 4.390625 13.46875 4.484375 13.46875 4.582031 C 13.46875 7.519531 10.375 10.898438 4.722656 10.898438 C 2.980469 10.898438 1.359375 10.535156 0 9.902344 C 0.246094 9.921875 0.484375 9.929688 0.742188 9.929688 C 2.179688 9.929688 3.503906 9.582031 4.558594 8.984375 C 3.207031 8.960938 2.074219 8.324219 1.683594 7.441406 C 1.875 7.460938 2.066406 7.476562 2.265625 7.476562 C 2.542969 7.476562 2.816406 7.449219 3.074219 7.398438 C 1.664062 7.195312 0.609375 6.300781 0.609375 5.222656 L 0.609375 5.195312 C 1.019531 5.359375 1.496094 5.460938 2 5.476562 C 1.171875 5.078125 0.628906 4.394531 0.628906 3.628906 C 0.628906 3.214844 0.78125 2.835938 1.046875 2.503906 C 2.558594 3.855469 4.835938 4.734375 7.386719 4.828125 C 7.339844 4.664062 7.308594 4.492188 7.308594 4.320312 C 7.308594 3.097656 8.679688 2.101562 10.382812 2.101562 C 11.269531 2.101562 12.070312 2.371094 12.628906 2.800781 C 13.324219 2.707031 13.992188 2.519531 14.582031 2.265625 C 14.351562 2.78125 13.867188 3.214844 13.230469 3.488281 C 13.847656 3.441406 14.449219 3.316406 15 3.144531 C 14.582031 3.585938 14.058594 3.976562 13.457031 4.292969 Z M 13.457031 4.292969 "/>
</g>
</svg>
