<?xml version="1.0" encoding="UTF-8"?>
<svg xmlns="http://www.w3.org/2000/svg" xmlns:xlink="http://www.w3.org/1999/xlink" width="12px" height="14px" viewBox="0 0 12 14" version="1.1">
<g id="surface1">
<path style=" stroke:none;fill-rule:nonzero;fill:#222933;fill-opacity:1;" d="M 8.398438 8.3125 C 7.632812 8.3125 7.261719 8.75 6 8.75 C 4.738281 8.75 4.371094 8.3125 3.601562 8.3125 C 1.613281 8.3125 0 9.957031 0 11.988281 L 0 12.6875 C 0 13.414062 0.574219 14 1.285156 14 L 10.714844 14 C 11.425781 14 12 13.414062 12 12.6875 L 12 11.988281 C 12 9.957031 10.386719 8.3125 8.398438 8.3125 Z M 10.714844 12.6875 L 1.285156 12.6875 L 1.285156 11.988281 C 1.285156 10.6875 2.324219 9.625 3.601562 9.625 C 3.992188 9.625 4.625 10.0625 6 10.0625 C 7.386719 10.0625 8.007812 9.625 8.398438 9.625 C 9.675781 9.625 10.714844 10.6875 10.714844 11.988281 Z M 6 7.875 C 8.128906 7.875 9.855469 6.109375 9.855469 3.9375 C 9.855469 1.765625 8.128906 0 6 0 C 3.871094 0 2.144531 1.765625 2.144531 3.9375 C 2.144531 6.109375 3.871094 7.875 6 7.875 Z M 6 1.3125 C 7.417969 1.3125 8.570312 2.492188 8.570312 3.9375 C 8.570312 5.382812 7.417969 6.5625 6 6.5625 C 4.582031 6.5625 3.429688 5.382812 3.429688 3.9375 C 3.429688 2.492188 4.582031 1.3125 6 1.3125 Z M 6 1.3125 "/>
</g>
</svg>
